<?xml version="1.0" encoding="UTF-8" standalone="no"?>
<!DOCTYPE svg PUBLIC "-//W3C//DTD SVG 1.1//EN" "http://www.w3.org/Graphics/SVG/1.1/DTD/svg11.dtd">
<svg version="1.1" xmlns="http://www.w3.org/2000/svg" xmlns:xlink="http://www.w3.org/1999/xlink" preserveAspectRatio="xMidYMid meet" viewBox="0 0 363 412" width="363" height="412"><defs><path d="M33.01 370.26L0 0L362.73 0L329.69 370.2L181.15 411.38L33.01 370.26Z" id="bFE9ZZ39j"></path><path d="M329.64 30.27L181.37 30.27L181.37 379.9L301.4 346.63L329.64 30.27Z" id="em9Cqd0Qu"></path><path d="M79.75 213.01L181.37 213.01L181.37 167.6L75.68 167.6L79.75 213.01Z" id="d3RUqTRfGq"></path><path d="M71.63 121.1L181.37 121.1L181.37 75.69L181.21 75.69L67.5 75.69L71.63 121.1Z" id="d7fVVkgMH"></path><path d="M181.17 285.59L130.59 271.93L127.36 235.71L102.79 235.71L81.78 235.71L88.14 307.01L181.16 332.84L181.37 332.78L181.37 285.53L181.17 285.59Z" id="b2i2vGuIpf"></path><path d="M294.96 75.69L181.21 75.69L181.21 121.1L245.2 121.1L241.07 167.6L181.21 167.6L181.21 213.01L237.13 213.01L231.86 271.9L181.21 285.57L181.21 332.82L274.3 307.01L274.99 299.34L285.66 179.79L286.77 167.6L294.96 75.69Z" id="b1pHTwmh0G"></path></defs><g><g><g><use xlink:href="#bFE9ZZ39j" opacity="1" fill="#264de4" fill-opacity="1"></use><g><use xlink:href="#bFE9ZZ39j" opacity="1" fill-opacity="0" stroke="#000000" stroke-width="1" stroke-opacity="0"></use></g></g><g><use xlink:href="#em9Cqd0Qu" opacity="1" fill="#2965f1" fill-opacity="1"></use><g><use xlink:href="#em9Cqd0Qu" opacity="1" fill-opacity="0" stroke="#000000" stroke-width="1" stroke-opacity="0"></use></g></g><g><use xlink:href="#d3RUqTRfGq" opacity="1" fill="#ebebeb" fill-opacity="1"></use><g><use xlink:href="#d3RUqTRfGq" opacity="1" fill-opacity="0" stroke="#000000" stroke-width="1" stroke-opacity="0"></use></g></g><g><use xlink:href="#d7fVVkgMH" opacity="1" fill="#ebebeb" fill-opacity="1"></use><g><use xlink:href="#d7fVVkgMH" opacity="1" fill-opacity="0" stroke="#000000" stroke-width="1" stroke-opacity="0"></use></g></g><g><use xlink:href="#b2i2vGuIpf" opacity="1" fill="#ebebeb" fill-opacity="1"></use><g><use xlink:href="#b2i2vGuIpf" opacity="1" fill-opacity="0" stroke="#000000" stroke-width="1" stroke-opacity="0"></use></g></g><g><use xlink:href="#b1pHTwmh0G" opacity="1" fill="#ffffff" fill-opacity="1"></use><g><use xlink:href="#b1pHTwmh0G" opacity="1" fill-opacity="0" stroke="#000000" stroke-width="1" stroke-opacity="0"></use></g></g></g></g></svg>