<?xml version="1.0" encoding="UTF-8" standalone="no"?>
<!DOCTYPE svg PUBLIC "-//W3C//DTD SVG 1.1//EN" "http://www.w3.org/Graphics/SVG/1.1/DTD/svg11.dtd">
<svg version="1.1" xmlns="http://www.w3.org/2000/svg" xmlns:xlink="http://www.w3.org/1999/xlink" preserveAspectRatio="xMidYMid meet" viewBox="0 0 363 412" width="363" height="412"><defs><path d="M329.58 370.86L181.17 412.78L33.61 371.14L-0.09 0.13L363 0.27L329.58 370.86ZM182.87 383.6L302.25 350.89L330.43 33.12L181.74 33.12L182.87 383.6ZM61.23 250.78L61.37 294.25L167.86 323L167.86 79.71L131.75 79.71L131.33 269.89L61.23 250.78Z" id="bxF3gSvXm"></path><path d="M104.7 305.44C101.86 304.67 87.65 300.85 62.08 293.97C62.08 281.14 62.08 274.01 62.08 272.58C62.08 251.63 62.08 251.2 64.2 251.91C65.34 252.33 80.91 256.58 98.76 261.54C100.92 262.13 111.73 265.11 131.18 270.46L131.47 175.58L131.75 80.7L167.15 80.7C167.15 153.09 167.15 193.31 167.15 201.35C167.15 297.22 166.87 322 165.88 322C165.17 321.86 160.64 320.73 155.97 319.46C151.29 318.04 128.21 311.81 104.7 305.44Z" id="a2SEzPTXHU"></path><path d="M61.23 250.78C61.23 250.78 105.98 263.38 131.33 269.89C131.35 257.22 131.5 193.88 131.75 79.85L167.86 79.85L167.86 323L61.37 294.25C61.29 268.17 61.24 253.67 61.23 250.78Z" id="c15reHCYun"></path><path d="M181.74 383.46L181.74 32.98L330.43 32.98L302.25 350.75L181.74 383.46ZM197.6 238.03L267.84 225.99L266.85 261.11L196.04 279.95L196.75 323L294.6 297.51L304.37 178.7L232.15 186.77L232.15 123.33L309.19 123.04L312.3 79.71L196.04 80.28L197.6 238.03Z" id="byOi90beP"></path></defs><g><g><g><use xlink:href="#bxF3gSvXm" opacity="1" fill="#d4b830" fill-opacity="1"></use><g><use xlink:href="#bxF3gSvXm" opacity="1" fill-opacity="0" stroke="#000000" stroke-width="1" stroke-opacity="0"></use></g></g><g><use xlink:href="#a2SEzPTXHU" opacity="1" fill="#ebebeb" fill-opacity="0"></use><g><use xlink:href="#a2SEzPTXHU" opacity="1" fill-opacity="0" stroke="#000000" stroke-width="1" stroke-opacity="0"></use></g></g><g><use xlink:href="#c15reHCYun" opacity="1" fill="#ebebeb" fill-opacity="0.92"></use><g><use xlink:href="#c15reHCYun" opacity="1" fill-opacity="0" stroke="#000000" stroke-width="1" stroke-opacity="0"></use></g></g><g><use xlink:href="#byOi90beP" opacity="1" fill="#fdd83c" fill-opacity="1"></use><g><use xlink:href="#byOi90beP" opacity="1" fill-opacity="0" stroke="#000000" stroke-width="1" stroke-opacity="0"></use></g></g></g></g></svg>